<svg xmlns="http://www.w3.org/2000/svg" width="472" height="548" fill="none"><path fill="#4A0BFB" d="M197.133 1.933C195 2.733 191.8 4.6 190.2 6.067c-5.6 5.066-6 9.333-3.867 37.867 4.8 62 4.934 63.066 2.8 97.466-1.066 18.134-2.533 37.6-3.466 43.333-1.334 9.067-2 10.801-5.067 12.667-7.867 4.933-22.8 16-32.8 24.267-5.867 4.8-12.8 10.533-15.467 12.8-2.666 2.133-12.933 11.067-22.8 19.866C93.133 268.867 80.2 279.8 55.267 300.2c-4.8 4-13.867 12.267-20.134 18.267 0 0-15.2 13.733-20 16.8-11.466 7.6-15.2 13.066-14.133 21.066 1.6 11.2 13.467 18.4 23.733 14.134 2.667-1.2 10.8-3.334 18-4.934 0 0 24.134-6.933 37.734-11.866 22.666-8.267 36.933-13.067 66.4-22 6.133-1.867 11.6-3.334 12.4-3.334 2.133 0 1.333 5.6-4.134 26-2.933 10.934-7.466 27.734-9.866 37.334-2.4 9.466-6.934 24.8-9.867 34-21.6 66.266-23.767 74.3-25.267 85.8C109 517 108.5 520 108.5 520c-1 10-5.233 18.2 2.767 25 9.733 4.5 14.733 3.5 26.933-8.267 3.8-4.233 7.333-8.933 8.933-10.4 1.734-1.466 15.867-17.066 31.334-34.666 15.6-17.6 31.333-34.8 34.8-38.134 19.2-18.133 75.466-63.866 81.333-66.133 2.4-.933 3.733 2.533 7.733 19.6 2 8.4 4.134 18 4.934 21.333.8 3.334 4.933 13.467 9.2 22.667 8.933 19.2 17.866 47.733 20.133 63.6 1.333 10 1.867 11.467 6 15.067 2.533 2.133 6.133 4.4 8.133 4.8 4.8 1.2 12-2.8 16.134-8.8 2.8-4.134 3.066-5.6 2.266-12.667-1.733-15.867-11.466-38-32-72.667-5.466-9.466-23.333-51.066-26.533-62.133-.8-2.4 2.933-5.733 25.333-23.333 84-65.734 114.134-90.4 120.8-98.933 9.067-11.201 14.4-21.601 14.4-27.601 0-4.799-.8-6.399-5.2-10.799l-5.2-5.201h-12c-23.6 0-41.333 5.067-94.933 27.334-13.6 5.6-30.4 12.533-37.333 15.333-6.934 2.8-16.8 6.934-22 9.2-5.067 2.133-9.734 3.6-10.267 3.334-.533-.4-1.6-3.201-2.4-6.267-.8-3.067-2.267-7.467-3.333-9.6-2.534-5.334-8.667-32.667-8.667-38.267 0-2.4-1.467-10.4-3.333-17.6l-4-13.133-1.5-6.5c4.533-8.4 25.633-24.9 42.166-38.9 13.6-11.467 22.934-19.6 37.067-32.267 4.933-4.533 12.6-11.6 21.267-18.833 8.666-7.234 38-34.734 38-37 0-.4 1.5-2.5.5-6.5-1.334-2.934-8-2-8-2-7 2-8.5 1.5-22.567 11.933-31.467 22.533-86.933 68-86.933 68-13.734 11.6-26.134 21.067-27.334 21.067-1.6 0-2.666-1.467-3.2-4.667-.533-2.533-7.866-28.8-16.4-58.4C227 49.134 219.267 21.667 218.2 17.667c-2.267-8.267-5.733-12.8-12-15.467-2.4-1.067-4.533-1.867-4.667-1.733-.266 0-2.133.666-4.4 1.466Zm19.334 105.334c6.266 17.066 16 47.733 16 50.267 0 1.733-4.8 6.133-14.8 13.466-8.134 6-15.2 10.534-15.6 10.134-1.067-1.067 1.866-32.134 5.066-54.801 3.734-25.733 4-27.333 5.2-27.333.667 0 2.4 3.734 4.134 8.267Zm25.866 81.333c.534 1.733 2.667 9.6 4.8 17.733 2 8 7.067 27.334 7.067 27.334 1.733 6.933 3.733 16.133 4.133 20.533 1.2 11.334 7.6 35.6 10.267 39.467 1.333 1.866 4.267 10.533 6.533 19.333 2.267 8.8 6.534 23.867 9.334 33.6 2.933 9.6 5.333 18.4 5.333 19.467 0 .933-2.667 3.733-5.867 6-13.333 9.6-29.6 23.2-52.666 44-57.067 51.6-86.4 77.066-87.6 76-.267-.4 3.333-16.534 8-35.867 10.266-41.733 15.333-65.333 20-92.533 1.866-11.067 5.2-27.2 7.466-35.867 2.134-8.667 4-17.867 4-20.267 0-2.4.934-9.066 2-14.8 1.2-5.733 4.134-24.533 6.667-41.733 3.467-23.6 5.2-31.866 6.933-33.6 3.2-3.067 40.8-31.466 41.867-31.6.533-.133 1.333 1.2 1.733 2.8ZM177.8 236.733c0 3.334-8.4 52.134-11.333 65.867-.8 3.733-6.267 5.333-32.667 10.4-16.533 3.067-36.667 7.733-47.6 10.8-1.867.533-3.067.267-3.067-.533 0-2.534 42.667-45.467 61.067-61.467 32.4-28.266 33.6-29.2 33.6-25.067Zm242.667 11.734c0 3.067-53.067 54-81.734 78.533-16.8 14.267-31.333 26.533-32.4 27.067-2.533 1.466-2.933.266-11.2-34.8-5.466-22.8-6.666-30.134-5.466-30.8.933-.667 11.333-4 23.2-7.467 22.666-6.667 46.8-14.667 56.933-18.8 5.067-2.133 46.8-14.8 49.733-15.067.534-.133.934.534.934 1.334Z"/></svg>