<svg width="37" height="35" fill="none" xmlns="http://www.w3.org/2000/svg"><g clip-path="url(#a)"><path d="M33.237 26.882c1.526 0 2.763 1.146 2.763 2.56 0 1.33-1.096 2.422-2.497 2.546l-.266.012H3.763C2.237 32 1 30.854 1 29.441c0-1.33 1.096-2.423 2.497-2.547l.266-.012h29.474Zm0-11.94c1.526 0 2.763 1.145 2.763 2.558 0 1.413-1.237 2.559-2.763 2.559H3.763C2.237 20.059 1 18.913 1 17.5c0-1.413 1.237-2.559 2.763-2.559h29.474Zm0-11.942C34.763 3 36 4.146 36 5.559c0 1.413-1.237 2.559-2.763 2.559H3.763C2.237 8.118 1 6.972 1 5.558 1 4.147 2.237 3 3.763 3h29.474Z" fill="#E2E1E6"/></g><defs><clipPath id="a"><path fill="#fff" d="M0 0h37v35H0z"/></clipPath></defs></svg>