<svg width="512" height="512" viewBox="0 0 512 512" fill="none" xmlns="http://www.w3.org/2000/svg">
<path d="M121 478C139.225 478 154 463.225 154 445C154 426.775 139.225 412 121 412C102.775 412 88 426.775 88 445C88 463.225 102.775 478 121 478Z" fill="#58C4FF"/>
<path fill-rule="evenodd" clip-rule="evenodd" d="M239 293.979L150.235 461L92 430.021L180.765 263L239 293.979Z" fill="#58C4FF"/>
<path fill-rule="evenodd" clip-rule="evenodd" d="M270 95.9791L180.632 263L122 232.021L211.368 65L270 95.9791Z" fill="#58C4FF"/>
<path d="M240 113C258.225 113 273 98.2254 273 80C273 61.7746 258.225 47 240 47C221.775 47 207 61.7746 207 80C207 98.2254 221.775 113 240 113Z" fill="#58C4FF"/>
<path fill-rule="evenodd" clip-rule="evenodd" d="M397.971 47.9831C412.679 51.6475 423 64.8484 423 79.9952V445H356.968V212.319L297.303 324.453L239 293.475L360.833 64.5064C367.949 51.1326 383.264 44.3188 397.971 47.9831Z" fill="#58C4FF"/>
<path d="M390 478C408.225 478 423 463.225 423 445C423 426.775 408.225 412 390 412C371.775 412 357 426.775 357 445C357 463.225 371.775 478 390 478Z" fill="#58C4FF"/>
</svg>
